<svg id="svg" version="1.1" xmlns="http://www.w3.org/2000/svg" xmlns:xlink="http://www.w3.org/1999/xlink" width="400" height="400" viewBox="0, 0, 400,400"><g id="svgg"><path id="path0" d="M0.000 18.000 C 0.000 27.900,0.154 36.000,0.342 36.000 C 0.530 36.000,1.149 34.741,1.717 33.202 C 4.941 24.469,13.406 19.080,22.917 19.705 C 25.843 19.897,33.401 22.074,35.000 23.184 C 35.220 23.337,36.300 23.786,37.400 24.182 C 38.500 24.578,39.940 25.142,40.600 25.436 C 41.260 25.729,44.320 26.972,47.400 28.197 C 50.480 29.421,53.360 30.593,53.800 30.801 C 54.240 31.008,55.590 31.551,56.800 32.007 C 59.386 32.982,61.524 33.888,62.495 34.419 C 62.877 34.629,63.389 34.800,63.634 34.800 C 63.879 34.800,64.646 35.063,65.340 35.385 C 66.810 36.067,76.451 39.986,80.800 41.670 C 84.235 43.000,86.297 43.873,87.295 44.419 C 87.677 44.629,88.189 44.800,88.434 44.800 C 88.679 44.800,89.446 45.062,90.140 45.383 C 92.818 46.621,103.527 50.892,106.000 51.709 C 110.506 53.196,116.330 52.976,121.600 51.119 C 127.812 48.931,131.117 47.822,133.800 47.027 C 135.120 46.636,136.920 46.067,137.800 45.764 C 138.680 45.460,140.210 45.045,141.200 44.841 C 142.190 44.637,144.890 44.007,147.200 43.441 C 154.125 41.745,157.953 41.001,167.800 39.441 C 185.038 36.710,216.062 36.689,232.600 39.398 C 234.580 39.723,237.370 40.178,238.800 40.411 C 246.036 41.588,260.008 44.690,262.200 45.607 C 262.640 45.791,265.160 46.601,267.800 47.407 C 270.440 48.212,273.770 49.330,275.200 49.890 C 285.584 53.954,289.695 53.814,301.000 49.013 C 306.883 46.514,308.056 46.011,309.000 45.584 C 309.440 45.385,310.790 44.851,312.000 44.398 C 313.210 43.944,314.740 43.328,315.400 43.029 C 316.953 42.324,317.782 41.975,322.600 40.000 C 324.800 39.098,326.960 38.199,327.400 38.002 C 327.840 37.805,329.100 37.264,330.200 36.800 C 331.300 36.336,332.560 35.795,333.000 35.598 C 333.440 35.401,335.420 34.595,337.400 33.806 C 339.380 33.017,341.360 32.207,341.800 32.006 C 342.240 31.805,344.400 30.902,346.600 30.000 C 351.082 28.162,352.075 27.747,353.800 26.987 C 355.792 26.111,357.622 25.343,361.400 23.801 C 363.380 22.993,365.360 22.175,365.800 21.984 C 375.378 17.820,381.937 17.653,389.000 21.394 C 390.100 21.977,391.180 22.667,391.400 22.929 C 391.620 23.191,392.398 23.898,393.129 24.501 C 395.539 26.489,398.344 31.015,398.991 33.958 C 399.778 37.542,400.000 33.942,400.000 17.600 L 400.000 0.000 200.000 0.000 L 0.000 0.000 0.000 18.000 M122.527 206.038 C 96.248 209.100,84.929 242.076,103.600 261.183 C 123.163 281.203,155.901 269.803,159.606 241.681 C 160.593 234.191,157.708 224.211,152.861 218.351 C 146.920 211.168,139.502 206.993,130.938 206.012 C 127.003 205.561,126.614 205.562,122.527 206.038 M268.600 206.006 C 261.952 206.714,253.216 211.237,249.056 216.126 C 246.262 219.410,245.482 220.502,244.197 222.923 C 229.333 250.936,258.858 281.611,287.400 267.809 C 298.739 262.326,307.417 247.825,305.839 237.000 C 304.964 231.004,304.723 229.745,304.088 227.884 C 300.084 216.135,289.271 207.425,276.938 206.012 C 273.073 205.569,272.714 205.569,268.600 206.006 M399.200 219.300 C 399.196 224.543,396.182 242.398,394.423 247.600 C 394.237 248.150,393.685 250.040,393.196 251.800 C 392.216 255.334,391.229 258.361,390.067 261.400 C 389.647 262.500,388.904 264.480,388.415 265.800 C 386.306 271.503,381.318 281.571,377.317 288.200 C 377.052 288.640,376.658 289.386,376.443 289.857 C 375.867 291.120,370.302 299.244,367.097 303.500 C 360.959 311.651,350.587 322.820,343.232 329.200 C 341.837 330.410,340.044 331.990,339.248 332.711 C 327.853 343.028,302.732 358.177,286.600 364.458 C 285.500 364.886,284.033 365.498,283.340 365.818 C 282.646 366.138,281.827 366.400,281.520 366.400 C 281.212 366.400,280.789 366.556,280.580 366.747 C 280.371 366.938,278.845 367.553,277.189 368.115 C 275.533 368.677,273.733 369.310,273.189 369.522 C 272.645 369.734,270.850 370.310,269.200 370.801 C 267.550 371.292,264.850 372.118,263.200 372.636 C 258.089 374.240,245.442 377.140,239.200 378.139 C 225.294 380.365,222.414 380.660,208.774 381.250 C 195.044 381.844,178.776 381.107,168.200 379.410 C 166.220 379.093,162.620 378.540,160.200 378.182 C 157.780 377.824,154.990 377.289,154.000 376.993 C 153.010 376.697,151.390 376.332,150.400 376.182 C 148.741 375.931,140.940 373.969,136.200 372.612 C 131.097 371.150,129.848 370.749,124.600 368.886 C 111.478 364.227,102.480 360.082,88.400 352.210 C 81.432 348.315,69.286 340.080,64.112 335.744 C 63.624 335.335,62.548 334.460,61.721 333.800 C 48.936 323.594,29.477 302.062,25.202 293.391 C 25.091 293.166,24.353 291.996,23.561 290.791 C 21.195 287.188,18.860 282.914,16.136 277.200 C 14.720 274.230,13.394 271.494,13.189 271.119 C 12.985 270.745,12.173 268.765,11.386 266.719 C 10.599 264.674,9.781 262.579,9.569 262.064 C 8.041 258.351,4.910 247.669,3.806 242.400 C 2.299 235.211,1.922 232.991,1.396 228.200 C 1.082 225.340,0.820 222.865,0.813 222.700 C 0.806 222.535,0.620 222.400,0.400 222.400 C 0.135 222.400,0.000 252.267,0.000 311.200 L 0.000 400.000 200.000 400.000 L 400.000 400.000 400.000 309.400 C 400.000 249.267,399.865 218.800,399.600 218.800 C 399.380 218.800,399.200 219.025,399.200 219.300 " stroke="none" fill="#fafafa" fill-rule="evenodd"></path><path id="path1" d="M371.600 19.772 C 368.790 20.754,367.060 21.411,365.800 21.974 C 365.360 22.171,363.380 22.993,361.400 23.801 C 357.622 25.343,355.792 26.111,353.800 26.987 C 352.075 27.747,351.082 28.162,346.600 30.000 C 344.400 30.902,342.240 31.805,341.800 32.006 C 341.360 32.207,339.380 33.017,337.400 33.806 C 335.420 34.595,333.440 35.401,333.000 35.598 C 332.560 35.795,331.300 36.336,330.200 36.800 C 329.100 37.264,327.840 37.805,327.400 38.002 C 326.960 38.199,324.800 39.098,322.600 40.000 C 317.782 41.975,316.953 42.324,315.400 43.029 C 314.740 43.328,313.210 43.947,312.000 44.405 C 310.035 45.147,308.947 45.598,306.200 46.806 C 294.317 52.031,292.606 52.550,287.200 52.565 C 282.388 52.578,281.646 52.413,275.200 49.890 C 273.770 49.330,270.440 48.212,267.800 47.407 C 265.160 46.601,262.640 45.791,262.200 45.607 C 260.008 44.690,246.036 41.588,238.800 40.411 C 237.370 40.178,234.580 39.723,232.600 39.398 C 216.062 36.689,185.038 36.710,167.800 39.441 C 157.953 41.001,154.125 41.745,147.200 43.441 C 144.890 44.007,142.190 44.637,141.200 44.841 C 140.210 45.045,138.680 45.460,137.800 45.764 C 136.920 46.067,135.120 46.636,133.800 47.027 C 131.117 47.822,127.812 48.931,121.600 51.119 C 116.330 52.976,110.506 53.196,106.000 51.709 C 103.527 50.892,92.818 46.621,90.140 45.383 C 89.446 45.062,88.679 44.800,88.434 44.800 C 88.189 44.800,87.677 44.629,87.295 44.419 C 86.297 43.873,84.235 43.000,80.800 41.670 C 76.451 39.986,66.810 36.067,65.340 35.385 C 64.646 35.063,63.879 34.800,63.634 34.800 C 63.389 34.800,62.877 34.629,62.495 34.419 C 61.524 33.888,59.386 32.982,56.800 32.007 C 55.590 31.551,54.240 31.008,53.800 30.801 C 53.360 30.593,50.480 29.421,47.400 28.197 C 44.320 26.972,41.260 25.729,40.600 25.436 C 39.940 25.142,38.500 24.578,37.400 24.182 C 36.300 23.786,35.220 23.337,35.000 23.184 C 33.401 22.074,25.843 19.897,22.917 19.705 C 13.406 19.080,4.941 24.469,1.717 33.202 C 1.149 34.741,0.530 36.000,0.342 36.000 C -0.163 36.000,-0.101 222.300,0.404 222.468 C 0.626 222.542,1.069 225.032,1.388 228.001 C 1.922 232.974,2.294 235.185,3.806 242.400 C 4.910 247.669,8.041 258.351,9.569 262.064 C 9.781 262.579,10.599 264.674,11.386 266.719 C 12.173 268.765,12.985 270.745,13.189 271.119 C 13.394 271.494,14.720 274.230,16.136 277.200 C 18.860 282.914,21.195 287.188,23.561 290.791 C 24.353 291.996,25.091 293.166,25.202 293.391 C 29.477 302.062,48.936 323.594,61.721 333.800 C 62.548 334.460,63.624 335.335,64.112 335.744 C 69.286 340.080,81.432 348.315,88.400 352.210 C 102.480 360.082,111.478 364.227,124.600 368.886 C 129.848 370.749,131.097 371.150,136.200 372.612 C 140.940 373.969,148.741 375.931,150.400 376.182 C 151.390 376.332,153.010 376.697,154.000 376.993 C 154.990 377.289,157.780 377.824,160.200 378.182 C 162.620 378.540,166.220 379.093,168.200 379.410 C 178.776 381.107,195.044 381.844,208.774 381.250 C 222.414 380.660,225.294 380.365,239.200 378.139 C 245.442 377.140,258.089 374.240,263.200 372.636 C 264.850 372.118,267.550 371.292,269.200 370.801 C 270.850 370.310,272.645 369.734,273.189 369.522 C 273.733 369.310,275.533 368.677,277.189 368.115 C 278.845 367.553,280.371 366.938,280.580 366.747 C 280.789 366.556,281.212 366.400,281.520 366.400 C 281.827 366.400,282.646 366.138,283.340 365.818 C 284.033 365.498,285.500 364.886,286.600 364.458 C 302.732 358.177,327.853 343.028,339.248 332.711 C 340.044 331.990,341.837 330.410,343.232 329.200 C 350.587 322.820,360.959 311.651,367.097 303.500 C 370.302 299.244,375.867 291.120,376.443 289.857 C 376.658 289.386,377.052 288.640,377.317 288.200 C 381.318 281.571,386.306 271.503,388.415 265.800 C 388.904 264.480,389.647 262.500,390.067 261.400 C 391.229 258.361,392.216 255.334,393.196 251.800 C 393.685 250.040,394.237 248.150,394.423 247.600 C 395.857 243.360,398.159 230.879,398.814 223.794 C 399.058 221.157,399.425 218.940,399.629 218.867 C 400.128 218.687,400.131 35.200,399.632 35.200 C 399.429 35.200,399.141 34.641,398.991 33.958 C 398.344 31.015,395.539 26.489,393.129 24.501 C 392.398 23.898,391.620 23.191,391.400 22.929 C 388.455 19.426,377.560 17.689,371.600 19.772 M130.938 206.012 C 146.607 207.807,157.531 219.342,159.795 236.481 C 162.405 256.244,140.532 275.152,120.365 270.565 C 82.496 261.952,87.555 207.544,126.400 205.655 C 126.950 205.628,128.992 205.789,130.938 206.012 M276.938 206.012 C 289.271 207.425,300.084 216.135,304.088 227.884 C 304.723 229.745,304.964 231.004,305.839 237.000 C 307.417 247.825,298.739 262.326,287.400 267.809 C 258.858 281.611,229.333 250.936,244.197 222.923 C 245.482 220.502,246.262 219.410,249.056 216.126 C 253.216 211.237,261.952 206.714,268.600 206.006 C 272.714 205.569,273.073 205.569,276.938 206.012 " stroke="none" fill="#040404" fill-rule="evenodd"></path></g></svg>